<svg xmlns="http://www.w3.org/2000/svg" width="121" height="64" viewBox="0 0 121 64">
    <g fill="#002B37" fill-rule="evenodd">
        <path fill-rule="nonzero" d="M24.388 42.667c0-4.681-3.127-7.53-7.705-7.53s-7.706 2.799-7.706 7.53c0 4.73 3.09 7.53 7.706 7.53 4.615 0 7.705-2.8 7.705-7.53zm-23.672 0c0-9.35 6.306-16.829 15.967-16.829 9.66 0 15.978 7.53 15.978 16.829 0 9.298-6.305 16.828-15.978 16.828-9.674 0-15.967-7.43-15.967-16.828zm106.14-3.276c0 2.862.252 9.224 4.388 9.224 2.245 0 3.317-2.372 3.317-4.417 0-3.677-1.942-7.103-5.713-7.103h-1.993v2.296zm9.509-2.246v.126c3.266 2.058 4.578 5.797 4.578 9.612 0 5.66-3.254 10.78-9.396 10.78-10.53 0-10.707-12.712-10.707-20.505-3.33 0-5.449 2.748-5.449 5.973a10.02 10.02 0 0 0 3.696 7.592l-5.133 5.02a19.432 19.432 0 0 1-4.957-13.365c0-10.905 5.575-13.804 15.714-13.804h15.475v8.571h-3.821z"/>
        <path d="M39.018 0H51.54v26.755h.164c2.838-3.903 7.693-5.309 12.864-5.309 11.527 0 18.539 10.303 18.539 21.522 0 12.248-7.983 20.844-19.952 20.844a15.752 15.752 0 0 1-12.447-6.275h-.164v5.334H39.018V0zM60.57 52.844c6.306 0 10.013-4.154 10.013-10.215s-3.783-10.215-10.013-10.215-10.026 4.141-10.026 10.253c0 6.111 3.783 10.215 10.026 10.215v-.038z"/>
    </g>
</svg>
